# xmcd
#
# Track frame offsets:
#	182
#	18757
#	35257
#	56907
#	77535
#	83497
#	91780
#	108457
#	119832
#	145207
#	167932
#	185107
#
# Disc length: 2719 seconds
#
# Revision: 1
# Processed by: cddbd v1.5.2PL0 Copyright (c) Steve Scherf et al.
# Submitted via: audiograbber 1.83.01
#
DISCID=990a9d0c
DTITLE=Stevie Ray Vaughan - Live USA
DYEAR=1984
DGENRE=Blues
TTITLE0=Testify
TTITLE1=Mary Had A Little Lamp
TTITLE2=Couldn't Stand The Weather
TTITLE3=Pride And Joy
TTITLE4=Ain't Gonna Give Up To Love
TTITLE5=Scuttleputtin'
TTITLE6=Dirty Pool
TTITLE7=House Is A Rockin'
TTITLE8=Tightrope
TTITLE9=Little Sister
TTITLE10=Let Me Love You
TTITLE11=Crossfire
EXTD=
EXTT0=
EXTT1=
EXTT2=
EXTT3=
EXTT4=
EXTT5=
EXTT6=
EXTT7=
EXTT8=
EXTT9=
EXTT10=
EXTT11=
PLAYORDER=
